<?xml version="1.0" encoding="UTF-8"?>
<svg xmlns="http://www.w3.org/2000/svg" xmlns:xlink="http://www.w3.org/1999/xlink" width="24pt" height="24pt" viewBox="0 0 24 24" version="1.1">
<g id="surface1">
<path style=" stroke:none;fill-rule:nonzero;fill:rgb(0%,0%,0%);fill-opacity:1;" d="M 10.5 0 L 10.5 3.039062 C 6.550781 3.394531 3.394531 6.550781 3.039062 10.5 L 0 10.5 L 0 12 L 3.039062 12 C 3.394531 15.949219 6.550781 19.105469 10.5 19.460938 L 10.5 22.5 L 12 22.5 L 12 19.460938 C 15.949219 19.105469 19.105469 15.949219 19.460938 12 L 22.5 12 L 22.5 10.5 L 19.460938 10.5 C 19.105469 6.550781 15.949219 3.394531 12 3.039062 L 12 0 Z M 11.25 4.5 C 14.984375 4.5 18 7.515625 18 11.25 C 18 14.984375 14.984375 18 11.25 18 C 7.515625 18 4.5 14.984375 4.5 11.25 C 4.5 7.515625 7.515625 4.5 11.25 4.5 Z M 11.25 9 C 10.007812 9 9 10.007812 9 11.25 C 9 12.492188 10.007812 13.5 11.25 13.5 C 12.492188 13.5 13.5 12.492188 13.5 11.25 C 13.5 10.007812 12.492188 9 11.25 9 Z M 11.25 9 "/>
</g>
</svg>
